PathFileType	4	(X/Y/Z)	C:/Users/opensim2020/Desktop/walking_exp_matlab/subject01_walking07_straight_04.trc	
DataRate	CameraRate	NumFrames	NumMarkers	Units	OrigDataRate	OrigDataStartFrame	OrigNumFrames	
100.00	100.00	5	43	mm	100.00	2768	176	
Frame#	Time	LFHD			RFHD			LBHD			RBHD			C7			T10			CLAV			STRN			RBAK			LSHO			LUPA			LELB			LFRM			LWRA			LWRB			LFIN			RSHO			RUPA			RELB			RFRM			RWRA			RWRB			RFIN			LASI			RASI			LPSI			RPSI			LTHI			LKNE			LTIB			LANK			LHEE			LTOE			RTHI			RKNE			RTIB			RANK			RHEE			RTOE			*39			*40			*41			*42			
		X1	Y1	Z1	X2	Y2	Z2	X3	Y3	Z3	X4	Y4	Z4	X5	Y5	Z5	X6	Y6	Z6	X7	Y7	Z7	X8	Y8	Z8	X9	Y9	Z9	X10	Y10	Z10	X11	Y11	Z11	X12	Y12	Z12	X13	Y13	Z13	X14	Y14	Z14	X15	Y15	Z15	X16	Y16	Z16	X17	Y17	Z17	X18	Y18	Z18	X19	Y19	Z19	X20	Y20	Z20	X21	Y21	Z21	X22	Y22	Z22	X23	Y23	Z23	X24	Y24	Z24	X25	Y25	Z25	X26	Y26	Z26	X27	Y27	Z27	X28	Y28	Z28	X29	Y29	Z29	X30	Y30	Z30	X31	Y31	Z31	X32	Y32	Z32	X33	Y33	Z33	X34	Y34	Z34	X35	Y35	Z35	X36	Y36	Z36	X37	Y37	Z37	X38	Y38	Z38	X39	Y39	Z39	X40	Y40	Z40	X41	Y41	Z41	X42	Y42	Z42	X43	Y43	Z43	

1	0.000	-967.95343	786.50671	1665.98608	-1077.81970	751.08209	1675.17993	-1000.86053	902.77771	1634.17480	-1116.43018	869.46826	1643.71082	-1035.67310	947.46057	1438.93237	-1048.98242	990.72638	1146.13574	-1049.00195	805.78357	1369.24768	-1053.53577	766.71698	1213.40833	-1114.20789	1012.61377	1249.55933	-883.05408	849.94202	1393.31055	-802.69977	848.09283	1204.37695	-805.61816	840.11176	1052.50098	-794.66974	775.69904	954.75989	-835.49969	680.42572	860.56042	-799.81195	725.83392	843.26758	-804.14777	661.24225	788.61542	-1194.53235	878.36884	1405.07507	-1290.08484	958.34491	1210.88794	-1293.18701	965.48993	1086.63916	-1329.55713	954.21252	968.78693	-1324.60486	884.99316	843.15991	-1357.90613	933.11420	850.58307	-1358.29333	906.83759	766.90057	-957.41919	810.98309	939.90802	-1174.30627	827.22559	944.54572	-999.92322	1000.06976	948.36151	-1145.15747	1007.36566	949.37231	-916.79352	831.41901	604.01617	-939.85541	840.60181	469.43341	-937.14935	900.86792	287.61267	-1001.68866	939.41016	75.85965	-1053.71350	985.86029	48.84724	-996.65601	792.60071	39.06610	-1253.97314	801.46912	621.11090	-1245.30005	757.97778	469.24722	-1236.56848	888.73322	351.80597	-1181.71790	1014.64850	192.20035	-1120.23230	1065.24255	181.72745	-1207.52234	932.44647	78.83738	-1055.25037	764.01764	1709.11523	-3101.97681	1973.08777	1023.77032	-3140.76172	2012.56702	1022.04474			 
2	0.010	-968.32050	777.54980	1665.99731	-1078.14990	741.84009	1674.99548	-1001.41925	893.76489	1634.46899	-1116.94360	860.23657	1643.79224	-1036.07898	938.81610	1439.15344	-1049.03076	982.44751	1146.40918	-1049.24719	797.15027	1369.34326	-1053.35242	758.25958	1213.45447	-1114.26172	1004.12891	1249.76746	-883.41010	841.44012	1393.72705	-802.73145	838.05481	1205.05908	-805.77722	827.75305	1053.03711	-794.98096	761.12207	956.91992	-835.85742	662.98047	865.64984	-800.56592	708.10419	846.87469	-804.82330	641.91040	794.09967	-1194.89294	869.68494	1405.05884	-1289.62952	950.66486	1210.88025	-1292.04602	958.34998	1086.58875	-1328.15027	948.53412	968.58246	-1322.80200	880.36975	842.32642	-1355.92371	928.30188	850.00623	-1355.68872	903.06799	766.05048	-956.86267	803.93652	939.74414	-1173.86047	818.52521	944.96997	-1000.72943	992.34650	948.52606	-1146.06494	998.86322	949.53735	-916.76917	827.12445	603.71045	-939.69971	837.85498	469.12030	-937.30273	899.14050	287.78000	-1001.82916	939.07178	75.97604	-1053.64197	986.10815	49.35569	-996.62927	792.47864	39.00016	-1254.23352	788.71649	622.75836	-1244.41772	743.34357	471.19110	-1236.98120	869.49829	348.09454	-1182.99524	988.97638	183.40178	-1121.91394	1039.65259	169.98769	-1209.57544	900.89380	75.23778	-1055.54260	754.68341	1708.99036	-3101.88745	1973.19653	1023.44977	-3140.61304	2012.47266	1021.90906			 
3	0.020	-968.80371	768.53241	1665.92798	-1078.48926	732.60797	1674.78821	-1002.09723	884.80896	1634.66589	-1117.89282	851.01672	1643.93665	-1036.47974	930.15308	1439.33691	-1049.14050	974.18292	1146.66479	-1049.50049	788.66992	1369.36536	-1053.18665	749.83405	1213.49573	-1114.28638	995.61365	1249.89587	-883.76172	832.98218	1394.06775	-802.83704	828.00238	1205.77673	-805.57880	815.57098	1053.74622	-795.14838	746.42328	959.16803	-836.18524	645.95514	870.69623	-801.41174	690.74353	850.52155	-805.26532	623.16931	799.72552	-1195.29077	860.94830	1404.94873	-1289.49219	942.97205	1210.94299	-1291.27893	951.38519	1086.67590	-1326.82532	942.43677	968.47162	-1321.11938	875.57361	841.59430	-1354.47070	923.73462	849.69788	-1353.87537	899.05664	765.20062	-956.64368	796.46216	939.25201	-1173.47168	809.94519	945.23529	-1001.46692	984.60040	948.56146	-1146.92285	990.37433	949.70905	-916.84808	822.91833	603.30487	-939.63568	835.23669	468.79831	-937.36346	897.44916	287.88449	-1001.96539	938.89368	76.27670	-1053.74280	986.07159	49.80928	-996.64832	792.29175	38.93605	-1253.81763	776.43542	624.20959	-1243.35803	729.28998	472.89581	-1237.23035	849.74298	343.79626	-1184.59473	962.81372	174.26926	-1123.83423	1013.07501	157.76173	-1211.63538	868.66669	71.65827	-1055.98706	745.47546	1708.89209	-3101.83228	1973.08655	1023.78198	-3140.65649	2012.51404	1021.99402			 
4	0.030	-969.26648	759.62555	1665.87122	-1079.06409	723.43323	1674.58398	-1002.84540	875.87085	1634.78296	-1119.16760	841.87775	1644.03491	-1036.98572	921.42719	1439.42188	-1049.29626	965.93903	1146.84900	-1049.69067	780.03876	1369.35107	-1053.07703	741.41077	1213.32092	-1114.40271	987.07178	1249.95740	-884.13770	824.33496	1394.53528	-803.02435	817.99420	1206.44641	-805.82233	803.26593	1054.42834	-795.62396	732.22827	961.43829	-836.52533	629.22052	875.80945	-802.20709	673.65326	854.29004	-805.90393	604.91559	805.12128	-1195.70996	852.16589	1404.72852	-1289.21692	935.22461	1210.83337	-1290.54272	944.35791	1086.68823	-1325.78711	936.57886	968.30920	-1319.70178	870.52478	840.90802	-1352.63538	918.57379	849.19263	-1351.67957	894.78796	764.34521	-956.53613	788.41211	938.95685	-1173.32654	801.26917	945.61060	-1002.22394	976.84296	948.53143	-1147.80750	982.01361	949.81201	-916.97406	818.83020	602.96637	-939.54327	832.49982	468.49231	-937.47772	895.90533	288.01831	-1001.71936	938.81647	76.68306	-1053.88147	985.84943	50.22539	-996.74219	792.16614	39.09506	-1253.43750	764.66284	625.58710	-1242.48511	715.93622	474.42303	-1237.70703	831.30603	340.04224	-1186.34827	935.88385	164.81685	-1125.75269	985.69208	145.05602	-1214.06335	835.76428	68.75043	-1056.45776	736.23419	1708.63306	-3102.06348	1973.07104	1023.90839	-3140.67603	2012.54004	1021.97357			 
5	0.040	-969.81982	750.73022	1665.78796	-1079.45972	714.30933	1674.23865	-1003.68170	866.81024	1634.71057	-1119.95422	832.69751	1643.89734	-1037.50122	912.75116	1439.44263	-1049.52698	957.53314	1146.93005	-1050.14880	771.33484	1369.12292	-1053.00745	732.90649	1213.16174	-1114.53442	978.52173	1249.90845	-884.57214	815.77673	1394.84558	-803.34851	808.05872	1207.08215	-805.55029	791.35321	1055.26038	-795.82788	717.84613	963.69849	-836.86890	612.84619	880.92303	-802.96594	656.98242	858.04218	-806.53387	587.05939	810.60498	-1196.17004	843.39355	1404.49023	-1289.11230	927.44037	1210.73096	-1289.93811	937.30609	1086.63586	-1324.64600	930.47687	968.17438	-1318.43994	865.30316	840.28931	-1351.61084	913.43951	848.86920	-1350.30200	890.21844	763.87122	-956.61108	780.87256	938.47461	-1173.21594	792.66449	945.67352	-1002.98969	969.07062	948.42188	-1148.63159	973.49066	949.77179	-917.17877	814.66028	602.61255	-939.41241	830.18475	468.17789	-937.58917	894.36188	288.17313	-1001.92340	938.22870	76.89429	-1054.02283	985.37860	50.91212	-996.70276	792.06262	39.05183	-1253.74365	753.03003	626.88898	-1241.54944	703.27991	475.67966	-1238.07483	812.48682	335.79855	-1188.33582	908.17505	155.15160	-1128.28015	957.32709	132.17569	-1216.36389	802.55872	65.51539	-1057.15442	727.08105	1708.40955	-3101.96924	1973.14661	1023.47504	-3140.73340	2012.58081	1022.01727			 
